# xmcd
#
# Track frame offsets: 
#        150
#        17837
#        35158
#        48539
#        59575
#        75855
#        87518
#        102380
#
# Disc length: 1589 seconds
#
# Revision: 0
# Processed by: cddbd v1.5.2PL0 Copyright (c) Steve Scherf et al.
# Submitted via: ExactAudioCopy v0.99pb4
#
DISCID=65063308
DTITLE=Amy Winehouse - Back To Black (Bonus CD)
DYEAR=2006
DGENRE=Blues
TTITLE0=Valerie
TTITLE1=Cupid
TTITLE2=Monkey Man
TTITLE3=Some Unholy War
TTITLE4=Hey Little Rich Girl Feat. Zalon and Ade
TTITLE5=You're Wondering Now
TTITLE6=To Know Him Is To Love Him
TTITLE7=Love Is A Losing Game - Original Demo
EXTD=
EXTT0=
EXTT1=
EXTT2=
EXTT3=
EXTT4=
EXTT5=
EXTT6=
EXTT7=
PLAYORDER=
